<svg xmlns="http://www.w3.org/2000/svg" version="1.1" xmlns:xlink="http://www.w3.org/1999/xlink" xmlns:svgjs="http://svgjs.dev/svgjs" viewBox="0 0 2400 800"><defs><linearGradient x1="50%" y1="0%" x2="50%" y2="100%" id="sssurf-grad"><stop stop-color="hsl(206, 75%, 49%)" stop-opacity="1" offset="0%"></stop><stop stop-color="hsl(331, 90%, 56%)" stop-opacity="1" offset="100%"></stop></linearGradient></defs><g fill="url(#sssurf-grad)" transform="matrix(1,0,0,1,10.8282470703125,223.50030660629272)"><path d="M-10,10C33.75,12.291666666666666,114.58333333333334,27.875,200,21C285.41666666666663,14.125,316.66666666666663,-23.208333333333332,400,-23C483.33333333333337,-22.791666666666668,516.6666666666666,18.666666666666668,600,22C683.3333333333334,25.333333333333332,716.6666666666666,-8.666666666666666,800,-7C883.3333333333334,-5.333333333333334,916.6666666666666,34.166666666666664,1000,30C1083.3333333333333,25.833333333333332,1116.6666666666667,-26.791666666666668,1200,-27C1283.3333333333333,-27.208333333333332,1316.6666666666667,25.875,1400,29C1483.3333333333333,32.125,1516.6666666666667,-14.916666666666668,1600,-12C1683.3333333333333,-9.083333333333332,1716.6666666666667,42.583333333333336,1800,43C1883.3333333333333,43.416666666666664,1916.6666666666667,-12.291666666666666,2000,-10C2083.3333333333335,-7.708333333333334,2118.75,49.833333333333336,2200,54C2281.25,58.166666666666664,2296.25,-62.08333333333333,2390,10C2483.75,82.08333333333333,3252.0833333333335,214.58333333333331,2650,400C2047.9166666666665,585.4166666666667,156.25,795.8333333333334,-500,900" transform="matrix(1,0,0,1,0,35)" opacity="0.05"></path><path d="M-10,10C33.75,12.291666666666666,114.58333333333334,27.875,200,21C285.41666666666663,14.125,316.66666666666663,-23.208333333333332,400,-23C483.33333333333337,-22.791666666666668,516.6666666666666,18.666666666666668,600,22C683.3333333333334,25.333333333333332,716.6666666666666,-8.666666666666666,800,-7C883.3333333333334,-5.333333333333334,916.6666666666666,34.166666666666664,1000,30C1083.3333333333333,25.833333333333332,1116.6666666666667,-26.791666666666668,1200,-27C1283.3333333333333,-27.208333333333332,1316.6666666666667,25.875,1400,29C1483.3333333333333,32.125,1516.6666666666667,-14.916666666666668,1600,-12C1683.3333333333333,-9.083333333333332,1716.6666666666667,42.583333333333336,1800,43C1883.3333333333333,43.416666666666664,1916.6666666666667,-12.291666666666666,2000,-10C2083.3333333333335,-7.708333333333334,2118.75,49.833333333333336,2200,54C2281.25,58.166666666666664,2296.25,-62.08333333333333,2390,10C2483.75,82.08333333333333,3252.0833333333335,214.58333333333331,2650,400C2047.9166666666665,585.4166666666667,156.25,795.8333333333334,-500,900" transform="matrix(1,0,0,1,0,70)" opacity="0.21"></path><path d="M-10,10C33.75,12.291666666666666,114.58333333333334,27.875,200,21C285.41666666666663,14.125,316.66666666666663,-23.208333333333332,400,-23C483.33333333333337,-22.791666666666668,516.6666666666666,18.666666666666668,600,22C683.3333333333334,25.333333333333332,716.6666666666666,-8.666666666666666,800,-7C883.3333333333334,-5.333333333333334,916.6666666666666,34.166666666666664,1000,30C1083.3333333333333,25.833333333333332,1116.6666666666667,-26.791666666666668,1200,-27C1283.3333333333333,-27.208333333333332,1316.6666666666667,25.875,1400,29C1483.3333333333333,32.125,1516.6666666666667,-14.916666666666668,1600,-12C1683.3333333333333,-9.083333333333332,1716.6666666666667,42.583333333333336,1800,43C1883.3333333333333,43.416666666666664,1916.6666666666667,-12.291666666666666,2000,-10C2083.3333333333335,-7.708333333333334,2118.75,49.833333333333336,2200,54C2281.25,58.166666666666664,2296.25,-62.08333333333333,2390,10C2483.75,82.08333333333333,3252.0833333333335,214.58333333333331,2650,400C2047.9166666666665,585.4166666666667,156.25,795.8333333333334,-500,900" transform="matrix(1,0,0,1,0,105)" opacity="0.37"></path><path d="M-10,10C33.75,12.291666666666666,114.58333333333334,27.875,200,21C285.41666666666663,14.125,316.66666666666663,-23.208333333333332,400,-23C483.33333333333337,-22.791666666666668,516.6666666666666,18.666666666666668,600,22C683.3333333333334,25.333333333333332,716.6666666666666,-8.666666666666666,800,-7C883.3333333333334,-5.333333333333334,916.6666666666666,34.166666666666664,1000,30C1083.3333333333333,25.833333333333332,1116.6666666666667,-26.791666666666668,1200,-27C1283.3333333333333,-27.208333333333332,1316.6666666666667,25.875,1400,29C1483.3333333333333,32.125,1516.6666666666667,-14.916666666666668,1600,-12C1683.3333333333333,-9.083333333333332,1716.6666666666667,42.583333333333336,1800,43C1883.3333333333333,43.416666666666664,1916.6666666666667,-12.291666666666666,2000,-10C2083.3333333333335,-7.708333333333334,2118.75,49.833333333333336,2200,54C2281.25,58.166666666666664,2296.25,-62.08333333333333,2390,10C2483.75,82.08333333333333,3252.0833333333335,214.58333333333331,2650,400C2047.9166666666665,585.4166666666667,156.25,795.8333333333334,-500,900" transform="matrix(1,0,0,1,0,140)" opacity="0.53"></path><path d="M-10,10C33.75,12.291666666666666,114.58333333333334,27.875,200,21C285.41666666666663,14.125,316.66666666666663,-23.208333333333332,400,-23C483.33333333333337,-22.791666666666668,516.6666666666666,18.666666666666668,600,22C683.3333333333334,25.333333333333332,716.6666666666666,-8.666666666666666,800,-7C883.3333333333334,-5.333333333333334,916.6666666666666,34.166666666666664,1000,30C1083.3333333333333,25.833333333333332,1116.6666666666667,-26.791666666666668,1200,-27C1283.3333333333333,-27.208333333333332,1316.6666666666667,25.875,1400,29C1483.3333333333333,32.125,1516.6666666666667,-14.916666666666668,1600,-12C1683.3333333333333,-9.083333333333332,1716.6666666666667,42.583333333333336,1800,43C1883.3333333333333,43.416666666666664,1916.6666666666667,-12.291666666666666,2000,-10C2083.3333333333335,-7.708333333333334,2118.75,49.833333333333336,2200,54C2281.25,58.166666666666664,2296.25,-62.08333333333333,2390,10C2483.75,82.08333333333333,3252.0833333333335,214.58333333333331,2650,400C2047.9166666666665,585.4166666666667,156.25,795.8333333333334,-500,900" transform="matrix(1,0,0,1,0,175)" opacity="0.68"></path><path d="M-10,10C33.75,12.291666666666666,114.58333333333334,27.875,200,21C285.41666666666663,14.125,316.66666666666663,-23.208333333333332,400,-23C483.33333333333337,-22.791666666666668,516.6666666666666,18.666666666666668,600,22C683.3333333333334,25.333333333333332,716.6666666666666,-8.666666666666666,800,-7C883.3333333333334,-5.333333333333334,916.6666666666666,34.166666666666664,1000,30C1083.3333333333333,25.833333333333332,1116.6666666666667,-26.791666666666668,1200,-27C1283.3333333333333,-27.208333333333332,1316.6666666666667,25.875,1400,29C1483.3333333333333,32.125,1516.6666666666667,-14.916666666666668,1600,-12C1683.3333333333333,-9.083333333333332,1716.6666666666667,42.583333333333336,1800,43C1883.3333333333333,43.416666666666664,1916.6666666666667,-12.291666666666666,2000,-10C2083.3333333333335,-7.708333333333334,2118.75,49.833333333333336,2200,54C2281.25,58.166666666666664,2296.25,-62.08333333333333,2390,10C2483.75,82.08333333333333,3252.0833333333335,214.58333333333331,2650,400C2047.9166666666665,585.4166666666667,156.25,795.8333333333334,-500,900" transform="matrix(1,0,0,1,0,210)" opacity="0.84"></path><path d="M-10,10C33.75,12.291666666666666,114.58333333333334,27.875,200,21C285.41666666666663,14.125,316.66666666666663,-23.208333333333332,400,-23C483.33333333333337,-22.791666666666668,516.6666666666666,18.666666666666668,600,22C683.3333333333334,25.333333333333332,716.6666666666666,-8.666666666666666,800,-7C883.3333333333334,-5.333333333333334,916.6666666666666,34.166666666666664,1000,30C1083.3333333333333,25.833333333333332,1116.6666666666667,-26.791666666666668,1200,-27C1283.3333333333333,-27.208333333333332,1316.6666666666667,25.875,1400,29C1483.3333333333333,32.125,1516.6666666666667,-14.916666666666668,1600,-12C1683.3333333333333,-9.083333333333332,1716.6666666666667,42.583333333333336,1800,43C1883.3333333333333,43.416666666666664,1916.6666666666667,-12.291666666666666,2000,-10C2083.3333333333335,-7.708333333333334,2118.75,49.833333333333336,2200,54C2281.25,58.166666666666664,2296.25,-62.08333333333333,2390,10C2483.75,82.08333333333333,3252.0833333333335,214.58333333333331,2650,400C2047.9166666666665,585.4166666666667,156.25,795.8333333333334,-500,900" transform="matrix(1,0,0,1,0,245)" opacity="1"></path></g></svg>