<svg xmlns="http://www.w3.org/2000/svg" version="1.1" xmlns:xlink="http://www.w3.org/1999/xlink" xmlns:svgjs="http://svgjs.dev/svgjs" viewBox="0 0 2400 800"><defs><linearGradient x1="50%" y1="0%" x2="50%" y2="100%" id="sssurf-grad"><stop stop-color="hsl(162, 100%, 58%)" stop-opacity="1" offset="0%"></stop><stop stop-color="hsl(270, 73%, 53%)" stop-opacity="1" offset="100%"></stop></linearGradient></defs><g fill="url(#sssurf-grad)" transform="matrix(1,0,0,1,10.8282470703125,223.07174682617188)"><path d="M-10,10C33.75,12.291666666666666,114.58333333333334,28.5,200,21C285.41666666666663,13.5,316.66666666666663,-28.916666666666668,400,-26C483.33333333333337,-23.083333333333332,516.6666666666666,30.833333333333332,600,35C683.3333333333334,39.166666666666664,716.6666666666666,-3.9166666666666665,800,-6C883.3333333333334,-8.083333333333334,916.6666666666666,24.375,1000,25C1083.3333333333333,25.625,1116.6666666666667,-8,1200,-3C1283.3333333333333,2,1316.6666666666667,50.875,1400,49C1483.3333333333333,47.125,1516.6666666666667,-9.916666666666666,1600,-12C1683.3333333333333,-14.083333333333334,1716.6666666666667,36.708333333333336,1800,39C1883.3333333333333,41.291666666666664,1916.6666666666667,-3.2916666666666665,2000,-1C2083.3333333333335,1.2916666666666665,2118.75,47.708333333333336,2200,50C2281.25,52.291666666666664,2296.25,-62.91666666666667,2390,10C2483.75,82.91666666666667,3252.0833333333335,214.58333333333331,2650,400C2047.9166666666665,585.4166666666667,156.25,795.8333333333334,-500,900" transform="matrix(1,0,0,1,0,35)" opacity="0.05"></path><path d="M-10,10C33.75,12.291666666666666,114.58333333333334,28.5,200,21C285.41666666666663,13.5,316.66666666666663,-28.916666666666668,400,-26C483.33333333333337,-23.083333333333332,516.6666666666666,30.833333333333332,600,35C683.3333333333334,39.166666666666664,716.6666666666666,-3.9166666666666665,800,-6C883.3333333333334,-8.083333333333334,916.6666666666666,24.375,1000,25C1083.3333333333333,25.625,1116.6666666666667,-8,1200,-3C1283.3333333333333,2,1316.6666666666667,50.875,1400,49C1483.3333333333333,47.125,1516.6666666666667,-9.916666666666666,1600,-12C1683.3333333333333,-14.083333333333334,1716.6666666666667,36.708333333333336,1800,39C1883.3333333333333,41.291666666666664,1916.6666666666667,-3.2916666666666665,2000,-1C2083.3333333333335,1.2916666666666665,2118.75,47.708333333333336,2200,50C2281.25,52.291666666666664,2296.25,-62.91666666666667,2390,10C2483.75,82.91666666666667,3252.0833333333335,214.58333333333331,2650,400C2047.9166666666665,585.4166666666667,156.25,795.8333333333334,-500,900" transform="matrix(1,0,0,1,0,70)" opacity="0.21"></path><path d="M-10,10C33.75,12.291666666666666,114.58333333333334,28.5,200,21C285.41666666666663,13.5,316.66666666666663,-28.916666666666668,400,-26C483.33333333333337,-23.083333333333332,516.6666666666666,30.833333333333332,600,35C683.3333333333334,39.166666666666664,716.6666666666666,-3.9166666666666665,800,-6C883.3333333333334,-8.083333333333334,916.6666666666666,24.375,1000,25C1083.3333333333333,25.625,1116.6666666666667,-8,1200,-3C1283.3333333333333,2,1316.6666666666667,50.875,1400,49C1483.3333333333333,47.125,1516.6666666666667,-9.916666666666666,1600,-12C1683.3333333333333,-14.083333333333334,1716.6666666666667,36.708333333333336,1800,39C1883.3333333333333,41.291666666666664,1916.6666666666667,-3.2916666666666665,2000,-1C2083.3333333333335,1.2916666666666665,2118.75,47.708333333333336,2200,50C2281.25,52.291666666666664,2296.25,-62.91666666666667,2390,10C2483.75,82.91666666666667,3252.0833333333335,214.58333333333331,2650,400C2047.9166666666665,585.4166666666667,156.25,795.8333333333334,-500,900" transform="matrix(1,0,0,1,0,105)" opacity="0.37"></path><path d="M-10,10C33.75,12.291666666666666,114.58333333333334,28.5,200,21C285.41666666666663,13.5,316.66666666666663,-28.916666666666668,400,-26C483.33333333333337,-23.083333333333332,516.6666666666666,30.833333333333332,600,35C683.3333333333334,39.166666666666664,716.6666666666666,-3.9166666666666665,800,-6C883.3333333333334,-8.083333333333334,916.6666666666666,24.375,1000,25C1083.3333333333333,25.625,1116.6666666666667,-8,1200,-3C1283.3333333333333,2,1316.6666666666667,50.875,1400,49C1483.3333333333333,47.125,1516.6666666666667,-9.916666666666666,1600,-12C1683.3333333333333,-14.083333333333334,1716.6666666666667,36.708333333333336,1800,39C1883.3333333333333,41.291666666666664,1916.6666666666667,-3.2916666666666665,2000,-1C2083.3333333333335,1.2916666666666665,2118.75,47.708333333333336,2200,50C2281.25,52.291666666666664,2296.25,-62.91666666666667,2390,10C2483.75,82.91666666666667,3252.0833333333335,214.58333333333331,2650,400C2047.9166666666665,585.4166666666667,156.25,795.8333333333334,-500,900" transform="matrix(1,0,0,1,0,140)" opacity="0.53"></path><path d="M-10,10C33.75,12.291666666666666,114.58333333333334,28.5,200,21C285.41666666666663,13.5,316.66666666666663,-28.916666666666668,400,-26C483.33333333333337,-23.083333333333332,516.6666666666666,30.833333333333332,600,35C683.3333333333334,39.166666666666664,716.6666666666666,-3.9166666666666665,800,-6C883.3333333333334,-8.083333333333334,916.6666666666666,24.375,1000,25C1083.3333333333333,25.625,1116.6666666666667,-8,1200,-3C1283.3333333333333,2,1316.6666666666667,50.875,1400,49C1483.3333333333333,47.125,1516.6666666666667,-9.916666666666666,1600,-12C1683.3333333333333,-14.083333333333334,1716.6666666666667,36.708333333333336,1800,39C1883.3333333333333,41.291666666666664,1916.6666666666667,-3.2916666666666665,2000,-1C2083.3333333333335,1.2916666666666665,2118.75,47.708333333333336,2200,50C2281.25,52.291666666666664,2296.25,-62.91666666666667,2390,10C2483.75,82.91666666666667,3252.0833333333335,214.58333333333331,2650,400C2047.9166666666665,585.4166666666667,156.25,795.8333333333334,-500,900" transform="matrix(1,0,0,1,0,175)" opacity="0.68"></path><path d="M-10,10C33.75,12.291666666666666,114.58333333333334,28.5,200,21C285.41666666666663,13.5,316.66666666666663,-28.916666666666668,400,-26C483.33333333333337,-23.083333333333332,516.6666666666666,30.833333333333332,600,35C683.3333333333334,39.166666666666664,716.6666666666666,-3.9166666666666665,800,-6C883.3333333333334,-8.083333333333334,916.6666666666666,24.375,1000,25C1083.3333333333333,25.625,1116.6666666666667,-8,1200,-3C1283.3333333333333,2,1316.6666666666667,50.875,1400,49C1483.3333333333333,47.125,1516.6666666666667,-9.916666666666666,1600,-12C1683.3333333333333,-14.083333333333334,1716.6666666666667,36.708333333333336,1800,39C1883.3333333333333,41.291666666666664,1916.6666666666667,-3.2916666666666665,2000,-1C2083.3333333333335,1.2916666666666665,2118.75,47.708333333333336,2200,50C2281.25,52.291666666666664,2296.25,-62.91666666666667,2390,10C2483.75,82.91666666666667,3252.0833333333335,214.58333333333331,2650,400C2047.9166666666665,585.4166666666667,156.25,795.8333333333334,-500,900" transform="matrix(1,0,0,1,0,210)" opacity="0.84"></path><path d="M-10,10C33.75,12.291666666666666,114.58333333333334,28.5,200,21C285.41666666666663,13.5,316.66666666666663,-28.916666666666668,400,-26C483.33333333333337,-23.083333333333332,516.6666666666666,30.833333333333332,600,35C683.3333333333334,39.166666666666664,716.6666666666666,-3.9166666666666665,800,-6C883.3333333333334,-8.083333333333334,916.6666666666666,24.375,1000,25C1083.3333333333333,25.625,1116.6666666666667,-8,1200,-3C1283.3333333333333,2,1316.6666666666667,50.875,1400,49C1483.3333333333333,47.125,1516.6666666666667,-9.916666666666666,1600,-12C1683.3333333333333,-14.083333333333334,1716.6666666666667,36.708333333333336,1800,39C1883.3333333333333,41.291666666666664,1916.6666666666667,-3.2916666666666665,2000,-1C2083.3333333333335,1.2916666666666665,2118.75,47.708333333333336,2200,50C2281.25,52.291666666666664,2296.25,-62.91666666666667,2390,10C2483.75,82.91666666666667,3252.0833333333335,214.58333333333331,2650,400C2047.9166666666665,585.4166666666667,156.25,795.8333333333334,-500,900" transform="matrix(1,0,0,1,0,245)" opacity="1"></path></g></svg>